<svg xmlns="http://www.w3.org/2000/svg" xmlns:xlink="http://www.w3.org/1999/xlink" viewBox="0 0 500 500"><defs><clipPath id="freepik--clip-path--inject-29"><path d="M212.75,195.81s.38,7-.78,10.26-2.71,5.42-2.71,7,2.52,3.49,2.52,6.58-5.61,18-7.16,20.9-1,3.87-2.9,4.06-6.77-2.12-6.77-2.12-2.91.38-3.29,1.54-1.36,5.23-1.36,5.23l-28.25-12.58a28.26,28.26,0,0,0,5.81-9.87c1.74-5.61-1-14.32-1-14.32s-2.71-20.31,9.67-26.12,30.38-2.13,33.29.78S212.75,195.81,212.75,195.81Z" style="fill:#fff;stroke:#263238;stroke-linecap:round;stroke-linejoin:round"></path></clipPath><clipPath id="freepik--clip-path-2--inject-29"><path d="M156.25,240.51l-.71.49c-2.72,1.87-12.76,8.83-20.38,14.8-8.9,7-9.48,19.93-9.87,30s-6.88,72.7-8.43,80.44,12.3,9.72,25.65,11.66,30.57-.19,38.89-4.06,10.26-3.68,10.26-7.94.19-13.93.19-14.7,6-48.18,5.61-62.11.78-21.48-2.51-28.45-11.61-12.38-22.64-16.06S156.25,240.51,156.25,240.51Z" style="fill:#09BEF8;stroke:#263238;stroke-linecap:round;stroke-linejoin:round"></path></clipPath><clipPath id="freepik--clip-path-3--inject-29"><path d="M158.18,233.93,153,242.64s15.67,3.68,23.8,7,19,12,19,12-1.74-9.87-3.29-12.38-17.61-11-24.19-13.55S158.18,233.93,158.18,233.93Z" style="fill:#09BEF8;stroke:#263238;stroke-linecap:round;stroke-linejoin:round"></path></clipPath><clipPath id="freepik--clip-path-4--inject-29"><path d="M179.47,280.36s-5.42,7.36-7.16,13.17.38,14.12,1,16.06,31.53,62.88,34.82,68.88,7,6.38,9.68,5.42,33.86-23.22,35-24.38,6.39-5.61,6.39-5.61,1-6.2-3.29-9.48-6.39-1.55-6.39-1.55l-27.09,7.35s-15.28-52.63-17-62.69,1-9.48-4.45-14.9a75.81,75.81,0,0,0-12-9.5" style="fill:#09BEF8;stroke:#263238;stroke-linecap:round;stroke-linejoin:round"></path></clipPath></defs><g id="freepik--background-simple--inject-29"><path d="M84.3,283.67S98.64,341.34,155.2,369s124,15.12,178.92,6.39,89.87-49,86.14-97-48-52.19-81.83-100-35.56-65.74-90-87.45S124,106.19,97,171,84.3,283.67,84.3,283.67Z" style="fill:#09BEF8"></path><path d="M84.3,283.67S98.64,341.34,155.2,369s124,15.12,178.92,6.39,89.87-49,86.14-97-48-52.19-81.83-100-35.56-65.74-90-87.45S124,106.19,97,171,84.3,283.67,84.3,283.67Z" style="fill:#fff;opacity:0.7000000000000001"></path></g></svg>