<svg id="Layer_1" data-name="Layer 1" xmlns="http://www.w3.org/2000/svg" viewBox="0 0 72 72"><defs><style>.cls-1{fill:#fff;}</style></defs><title>social-linkedin</title><path class="cls-1" d="M80.67,14H19.31A5.26,5.26,0,0,0,14,19.19V80.81A5.26,5.26,0,0,0,19.31,86H80.67A5.27,5.27,0,0,0,86,80.81V19.19A5.27,5.27,0,0,0,80.67,14ZM35.35,75.35H24.67V41H35.35ZM30,36.3a6.2,6.2,0,1,1,6.19-6.2A6.2,6.2,0,0,1,30,36.3ZM75.35,75.35H64.68V58.65c0-4-.07-9.11-5.55-9.11s-6.4,4.34-6.4,8.82v17H42.05V41H52.3v4.69h.14a11.23,11.23,0,0,1,10.11-5.55c10.81,0,12.8,7.11,12.8,16.37V75.35Z" transform="translate(-14 -14)"/></svg>